# xmcd CD database file
#
# Track frame offsets:
#	150
#	15723
#	30549
#	48272
#	65842
#	82165
#	98481
#	110601
#	131814
#	146132
#	162569
#	178116
#	195319
#	209995
#	227818
#	239150
#	258276
#	275251
#	291189
#
# Disc length: 4043 seconds
#
# Revision: 0
# Processed by: cddbd v1.5.2PL0 Copyright (c) Steve Scherf et al.
# Submitted via: CDex 2.10
#
DISCID=280fc913
DTITLE=Various Artist - Hott Counrty 28
DYEAR=1999
DGENRE=Country
TTITLE0=Geroge Strait - I Just Want To Dance With You
TTITLE1=Mark Mills - I Do (Cherish You)
TTITLE2=Reba McEntire and Brooks and Dunn - If You See Him, If You See Her
TTITLE3=Sammy Kershow - Matches
TTITLE4=Ty Herndon - A Man Holding On
TTITLE5=Terri Ckark - Now That I Found You
TTITLE6=Joe Diffie - Texas Size Heartache
TTITLE7=Shania Twian and Bryan White - From This Moment On
TTITLE8=Dixie Chicks - There`s Your Trouble
TTITLE9=Collin Raye - I Can Still Feel You
TTITLE10=Martina McBride - Happy Girl
TTITLE11=Trisha Yearwood - There Goes My Baby
TTITLE12=Lorrie Morgan - I`m Not That Easy To Forget
TTITLE13=Wynonna - Always Will
TTITLE14=Wade Hayes - When The Wrong One Loves You Right
TTITLE15=Paul Brandt - Yeah!
TTITLE16=John Berry - Over My Shoulders
TTITLE17=Charlie Mojor - Thank The Lord For The Night Time
TTITLE18=Gil Grand - Famous First Words
EXTD=YEAR: 1999
EXTT0=
EXTT1=
EXTT2=
EXTT3=
EXTT4=
EXTT5=
EXTT6=
EXTT7=
EXTT8=
EXTT9=
EXTT10=
EXTT11=
EXTT12=
EXTT13=
EXTT14=
EXTT15=
EXTT16=
EXTT17=
EXTT18=
PLAYORDER=
